HIERARCHY
ROOT Hips
{
	OFFSET 0.000000 0.000000 0.000000
	CHANNELS 6 Xposition Yposition Zposition Zrotation Xrotation Yrotation
	JOINT Spine1
	{
		OFFSET 0.000000 1.277396 0.000001
		CHANNELS 6 Xposition Yposition Zposition Zrotation Xrotation Yrotation
		JOINT Neck
		{
			OFFSET 0.000000 1.018385 0.000001
			CHANNELS 6 Xposition Yposition Zposition Zrotation Xrotation Yrotation
			JOINT Head
			{
				OFFSET 0.000000 0.647533 0.083553
				CHANNELS 6 Xposition Yposition Zposition Zrotation Xrotation Yrotation
				End Site
				{
					OFFSET 0.000000 0.835523 0.000001
				}
			}
		}
		JOINT LeftShoulder
		{
			OFFSET 0.168253 0.822291 -0.022085
			CHANNELS 6 Xposition Yposition Zposition Zrotation Xrotation Yrotation
			JOINT LeftArm
			{
				OFFSET 0.600374 0.000000 0.000000
				CHANNELS 6 Xposition Yposition Zposition Zrotation Xrotation Yrotation
				JOINT LeftForeArm
				{
					OFFSET 1.177236 0.000000 0.000000
					CHANNELS 6 Xposition Yposition Zposition Zrotation Xrotation Yrotation
					JOINT LeftHand
					{
						OFFSET 1.094087 0.000000 0.000000
						CHANNELS 6 Xposition Yposition Zposition Zrotation Xrotation Yrotation
						End Site
						{
							OFFSET 0.626643 0.000000 0.000000
						}
					}
				}
			}
		}
		JOINT RightShoulder
		{
			OFFSET -0.165932 0.822291 -0.022085
			CHANNELS 6 Xposition Yposition Zposition Zrotation Xrotation Yrotation
			JOINT RightArm
			{
				OFFSET -0.600374 0.000000 0.000000
				CHANNELS 6 Xposition Yposition Zposition Zrotation Xrotation Yrotation
				JOINT RightForeArm
				{
					OFFSET -1.177236 0.000000 0.000000
					CHANNELS 6 Xposition Yposition Zposition Zrotation Xrotation Yrotation
					JOINT RightHand
					{
						OFFSET -1.094088 0.000000 0.000000
						CHANNELS 6 Xposition Yposition Zposition Zrotation Xrotation Yrotation
						End Site
						{
							OFFSET -0.626643 0.000000 0.000000
						}
					}
				}
			}
		}
	}
	JOINT LeftUpLeg
	{
		OFFSET 0.417763 0.000000 0.000000
		CHANNELS 6 Xposition Yposition Zposition Zrotation Xrotation Yrotation
		JOINT LeftLeg
		{
			OFFSET 0.000000 -1.756965 -0.000001
			CHANNELS 6 Xposition Yposition Zposition Zrotation Xrotation Yrotation
			JOINT LeftFoot
			{
				OFFSET 0.000000 -1.841978 -0.000001
				CHANNELS 6 Xposition Yposition Zposition Zrotation Xrotation Yrotation
				JOINT LeftToeBase
				{
					OFFSET 0.000000 -0.271546 0.626644
					CHANNELS 6 Xposition Yposition Zposition Zrotation Xrotation Yrotation
					End Site
					{
						OFFSET 0.000000 0.000000 0.167105
					}
				}
			}
		}
	}
	JOINT RightUpLeg
	{
		OFFSET -0.417763 0.000000 0.000000
		CHANNELS 6 Xposition Yposition Zposition Zrotation Xrotation Yrotation
		JOINT RightLeg
		{
			OFFSET 0.000000 -1.756965 -0.000001
			CHANNELS 6 Xposition Yposition Zposition Zrotation Xrotation Yrotation
			JOINT RightFoot
			{
				OFFSET 0.000000 -1.841978 -0.000001
				CHANNELS 6 Xposition Yposition Zposition Zrotation Xrotation Yrotation
				JOINT RightToeBase
				{
					OFFSET 0.000000 -0.271546 0.626644
					CHANNELS 6 Xposition Yposition Zposition Zrotation Xrotation Yrotation
					End Site
					{
						OFFSET 0.000000 0.000000 0.167105
					}
				}
			}
		}
	}
}
MOTION
Frames: 9
Frame Time: 0.016667
0.089363 3.322356 0.658930 2.357477 13.816528 -5.066806 -0.000000 1.277396 0.000001 2.219970 -13.344110 -2.294675 -0.000000 1.018386 0.000001 2.905448 7.893645 4.855214 0.000000 0.647534 0.083553 -5.794734 -1.768644 6.263016 0.168252 0.822291 -0.022085 21.792268 -5.930691 2.796926 0.600374 0.000001 0.000000 -10.092399 -8.946013 -11.454482 1.177237 0.000000 -0.000000 4.359123 -16.169578 -7.689393 1.094088 -0.000000 -0.000000 -10.363829 -17.523240 18.665691 -0.165932 0.822291 -0.022085 -17.211749 0.013795 -6.515184 -0.600374 -0.000000 0.000000 1.487465 25.369363 20.637893 -1.177236 0.000001 -0.000000 -47.106708 -37.696033 81.904261 -1.094089 0.000000 -0.000001 -33.344960 3.164847 5.654979 0.417763 -0.000000 0.000000 29.326268 -26.466449 30.009481 0.000000 -1.756965 -0.000001 -26.123694 42.861028 25.327470 -0.000000 -1.841978 -0.000001 0.315308 -14.276458 21.499907 0.000000 -0.271547 0.626644 -0.000004 0.000002 -0.000002 -0.417763 0.000001 0.000000 -39.911053 -27.976101 -5.596212 0.000000 -1.756966 -0.000001 39.831990 20.311307 -37.649430 0.000000 -1.841979 -0.000001 1.978341 -7.480547 -35.953645 -0.000000 -0.271546 0.626644 0.000000 0.000001 0.000004 
0.089182 3.322798 0.659292 2.341982 13.810918 -5.144590 -0.000000 1.277396 0.000001 2.269681 -13.327449 -2.243013 -0.000000 1.018383 0.000001 2.903974 7.876439 4.869289 -0.000000 0.647534 0.083554 -5.787398 -1.815028 6.273672 0.168252 0.822291 -0.022085 21.789306 -5.938263 2.803047 0.600375 0.000002 -0.000000 -10.098527 -9.139425 -11.405133 1.177237 0.000001 -0.000000 4.336615 -16.203649 -7.637299 1.094087 -0.000000 0.000000 -10.309067 -17.551947 18.667759 -0.165932 0.822291 -0.022085 -17.221079 0.011248 -6.485384 -0.600374 -0.000000 0.000000 1.456740 25.368111 20.620862 -1.177236 0.000001 0.000001 -47.150138 -37.728657 81.842550 -1.094088 0.000001 -0.000001 -33.395107 3.134486 5.601115 0.417763 0.000002 0.000000 29.357826 -26.411068 29.964293 0.000000 -1.756965 -0.000001 -26.179067 42.815194 25.370833 0.000000 -1.841978 -0.000001 0.313582 -14.279720 21.564553 0.000000 -0.271546 0.626643 0.000001 -0.000003 0.000004 -0.417763 0.000002 -0.000000 -39.874672 -27.980896 -5.739837 -0.000000 -1.756965 -0.000001 39.785592 20.375310 -37.497749 0.000000 -1.841977 -0.000001 1.979538 -7.411684 -35.889417 -0.000000 -0.271546 0.626643 -0.000002 -0.000001 -0.000007 
0.088919 3.323194 0.659665 2.311090 13.799627 -5.207134 -0.000000 1.277395 0.000001 2.319802 -13.301439 -2.189418 -0.000000 1.018386 0.000000 2.929513 7.848963 4.876944 0.000000 0.647533 0.083553 -5.792430 -1.859808 6.284377 0.168253 0.822292 -0.022085 21.783874 -5.944086 2.792072 0.600374 0.000001 -0.000000 -10.073576 -9.247868 -11.336995 1.177237 0.000000 -0.000001 4.347685 -16.213172 -7.607546 1.094087 -0.000000 -0.000000 -10.317620 -17.562366 18.658883 -0.165931 0.822292 -0.022085 -17.228035 0.028984 -6.465090 -0.600374 0.000000 0.000000 1.482875 25.243356 20.577553 -1.177236 0.000000 0.000001 -47.063343 -37.681303 81.924055 -1.094088 0.000001 -0.000001 -33.421321 3.162791 5.595979 0.417763 -0.000000 0.000000 29.386175 -26.364836 29.999290 -0.000000 -1.756965 -0.000002 -26.123184 42.816803 25.370055 -0.000000 -1.841978 -0.000001 0.288703 -14.294620 21.548540 -0.000000 -0.271545 0.626644 0.000001 0.000001 -0.000000 -0.417763 -0.000001 -0.000000 -39.824712 -27.980633 -5.964712 0.000001 -1.756965 -0.000001 39.714022 20.495996 -37.319775 0.000000 -1.841977 -0.000001 1.964221 -7.316155 -35.824062 -0.000000 -0.271546 0.626644 -0.000000 -0.000002 -0.000006 
0.088800 3.323350 0.660077 2.303691 13.780366 -5.272684 0.000000 1.277395 0.000001 2.346174 -13.265191 -2.133262 -0.000000 1.018387 0.000001 2.939764 7.820042 4.888402 -0.000000 0.647533 0.083553 -5.773041 -1.915546 6.292591 0.168253 0.822293 -0.022085 21.768947 -5.956288 2.782535 0.600374 0.000001 0.000000 -10.026180 -9.335246 -11.261947 1.177236 -0.000000 -0.000000 4.362425 -16.181741 -7.603218 1.094086 0.000001 0.000000 -10.343996 -17.531373 18.623375 -0.165931 0.822292 -0.022085 -17.229342 0.058062 -6.461742 -0.600374 0.000001 0.000000 1.464790 25.191090 20.576592 -1.177236 0.000001 0.000001 -47.087591 -37.686884 81.877262 -1.094088 0.000001 -0.000001 -33.465308 3.153407 5.554686 0.417763 -0.000000 0.000000 29.399221 -26.298895 30.031085 -0.000000 -1.756965 -0.000001 -26.107146 42.802316 25.350599 -0.000000 -1.841978 -0.000001 0.292848 -14.307328 21.566358 0.000000 -0.271546 0.626644 -0.000002 0.000000 0.000002 -0.417763 -0.000000 0.000000 -39.798993 -27.984492 -6.194530 -0.000000 -1.756965 -0.000001 39.647011 20.636571 -37.210058 0.000001 -1.841978 -0.000001 1.973661 -7.260143 -35.690655 -0.000000 -0.271546 0.626644 0.000001 -0.000002 0.000001 
0.088773 3.323533 0.660419 2.304357 13.758036 -5.330853 -0.000000 1.277397 0.000001 2.365092 -13.216920 -2.085636 -0.000000 1.018386 0.000001 2.947896 7.794245 4.895763 0.000000 0.647532 0.083554 -5.743079 -1.978705 6.294688 0.168253 0.822292 -0.022085 21.765725 -5.980824 2.771068 0.600374 0.000001 0.000000 -9.991882 -9.378791 -11.184887 1.177236 -0.000001 -0.000001 4.389599 -16.175804 -7.613231 1.094086 -0.000001 -0.000001 -10.357452 -17.521652 18.579786 -0.165931 0.822291 -0.022085 -17.231958 0.042669 -6.444773 -0.600374 -0.000000 0.000000 1.466572 25.155206 20.538293 -1.177236 0.000000 0.000000 -47.073254 -37.681658 81.873259 -1.094088 0.000001 -0.000000 -33.493953 3.149769 5.514454 0.417763 0.000001 -0.000000 29.406563 -26.230790 30.064553 -0.000000 -1.756965 -0.000001 -26.099316 42.786207 25.340179 -0.000000 -1.841977 -0.000001 0.287502 -14.322317 21.563585 0.000000 -0.271546 0.626644 -0.000002 -0.000002 0.000007 -0.417763 0.000001 -0.000000 -39.800984 -27.980543 -6.374998 -0.000000 -1.756965 -0.000001 39.620056 20.733715 -37.105819 0.000000 -1.841978 -0.000001 1.980532 -7.205535 -35.617411 -0.000000 -0.271546 0.626644 0.000001 0.000007 0.000003 
0.088668 3.323550 0.660818 2.309914 13.735376 -5.364942 -0.000000 1.277396 0.000001 2.416645 -13.175873 -2.061880 -0.000000 1.018385 0.000001 2.843355 7.774092 4.926872 0.000000 0.647535 0.083554 -5.650334 -2.040025 6.291857 0.168253 0.822291 -0.022085 21.653395 -5.991139 2.771974 0.600374 -0.000001 0.000000 -9.879012 -9.365002 -11.137136 1.177237 -0.000001 -0.000000 4.407367 -16.149506 -7.631984 1.094087 0.000001 -0.000000 -10.334147 -17.488252 18.559492 -0.165931 0.822292 -0.022085 -17.349942 0.051547 -6.452671 -0.600374 -0.000001 -0.000000 1.541815 25.117845 20.540380 -1.177237 0.000000 0.000001 -47.078629 -37.675884 81.869537 -1.094087 0.000001 -0.000001 -33.486409 3.152907 5.539473 0.417763 0.000001 -0.000000 29.404255 -26.171750 30.099110 -0.000000 -1.756966 -0.000001 -26.090051 42.775856 25.298090 -0.000000 -1.841979 -0.000001 0.288037 -14.332035 21.570895 -0.000000 -0.271546 0.626644 0.000001 -0.000001 -0.000006 -0.417763 0.000001 -0.000000 -39.825733 -27.951685 -6.523827 0.000000 -1.756966 -0.000001 39.621832 20.791600 -37.114056 0.000000 -1.841978 -0.000001 2.002576 -7.165516 -35.461417 0.000000 -0.271546 0.626644 0.000004 0.000002 -0.000003 
0.088677 3.323664 0.661341 2.308683 13.718741 -5.377664 0.000000 1.277395 0.000001 2.396196 -13.146104 -2.043101 -0.000000 1.018386 0.000001 2.913745 7.761356 4.924190 0.000000 0.647532 0.083553 -5.643845 -2.089932 6.299804 0.168253 0.822292 -0.022085 21.689962 -5.991595 2.762917 0.600374 0.000001 -0.000000 -9.833560 -9.260969 -11.075860 1.177236 -0.000001 -0.000000 4.433763 -16.171743 -7.678218 1.094089 0.000001 0.000000 -10.267749 -17.495902 18.552605 -0.165931 0.822292 -0.022085 -17.311635 0.065379 -6.462061 -0.600374 -0.000000 0.000000 1.511333 25.111018 20.529564 -1.177236 0.000000 0.000000 -47.165738 -37.689616 81.760438 -1.094088 0.000002 -0.000000 -33.507682 3.150221 5.511914 0.417763 -0.000000 0.000000 29.404381 -26.123896 30.129812 -0.000000 -1.756965 -0.000001 -26.076819 42.762623 25.279129 -0.000000 -1.841978 -0.000001 0.294160 -14.334982 21.545921 -0.000000 -0.271545 0.626644 0.000002 -0.000005 0.000002 -0.417763 -0.000000 -0.000000 -39.861718 -27.903490 -6.628896 0.000000 -1.756965 -0.000002 39.653821 20.806534 -37.074929 0.000001 -1.841978 -0.000001 2.040356 -7.136215 -35.385482 -0.000000 -0.271546 0.626644 -0.000001 0.000000 -0.000002 
0.088836 3.323698 0.661858 2.315687 13.699124 -5.385054 0.000000 1.277395 0.000001 2.382028 -13.115699 -2.045307 -0.000000 1.018385 0.000000 2.939780 7.753653 4.934160 0.000000 0.647533 0.083554 -5.608523 -2.137082 6.308960 0.168253 0.822292 -0.022085 21.686380 -5.958986 2.794634 0.600374 0.000000 -0.000000 -9.765616 -9.182079 -11.073742 1.177237 0.000001 0.000000 4.469317 -16.165290 -7.712462 1.094087 -0.000001 0.000000 -10.216352 -17.477243 18.545535 -0.165931 0.822292 -0.022085 -17.312673 0.085973 -6.449416 -0.600374 -0.000001 0.000000 1.529175 25.020648 20.497247 -1.177235 0.000001 -0.000000 -47.133547 -37.653532 81.780840 -1.094087 -0.000000 -0.000000 -33.510783 3.169563 5.529797 0.417763 -0.000001 0.000000 29.392186 -26.073718 30.187244 -0.000000 -1.756966 -0.000001 -26.041978 42.758651 25.244514 -0.000000 -1.841979 -0.000001 0.281386 -14.341924 21.492013 0.000000 -0.271546 0.626644 -0.000001 -0.000005 -0.000012 -0.417763 -0.000000 0.000000 -39.937376 -27.852917 -6.650336 0.000000 -1.756966 -0.000001 39.754095 20.761344 -37.179479 0.000001 -1.841978 -0.000001 2.098080 -7.081769 -35.275089 -0.000000 -0.271546 0.626643 0.000001 -0.000001 0.000000 
0.089060 3.323712 0.662447 2.318571 13.685540 -5.366740 -0.000000 1.277395 0.000001 2.373566 -13.118752 -2.052258 0.000000 1.018386 0.000001 2.938309 7.818115 4.938859 -0.000000 0.647533 0.083553 -5.558525 -2.225803 6.305406 0.168252 0.822292 -0.022085 21.655900 -5.903633 2.735813 0.600373 0.000000 -0.000000 -9.664520 -9.032746 -11.001341 1.177237 0.000000 0.000000 4.518286 -16.202609 -7.759756 1.094088 0.000001 -0.000001 -10.175234 -17.500741 18.520784 -0.165931 0.822291 -0.022085 -17.358716 0.127820 -6.400508 -0.600373 -0.000001 0.000000 1.624148 24.942741 20.413120 -1.177235 0.000000 0.000000 -47.104290 -37.621819 81.817149 -1.094088 0.000002 -0.000000 -33.444363 3.196993 5.573667 0.417763 0.000000 -0.000000 29.385929 -26.039031 30.213171 0.000000 -1.756965 -0.000001 -26.044288 42.744410 25.261171 0.000000 -1.841977 -0.000001 0.277833 -14.339909 21.422735 -0.000000 -0.271546 0.626644 0.000001 -0.000003 0.000002 -0.417763 0.000001 -0.000000 -40.011935 -27.796724 -6.625027 0.000001 -1.756965 -0.000001 39.855113 20.698434 -37.281116 0.000000 -1.841978 -0.000001 2.173115 -7.053952 -35.196453 0.000000 -0.271546 0.626644 0.000003 0.000003 0.000004 
